# xmcd
#
# Track frame offsets: 
#        150
#        13462
#        27315
#        41194
#        54021
#        66461
#        81385
#        94654
#        109559
#        123801
#        136802
#        149593
#        163535
#        176775
#        189272
#        203769
#        217592
#        229383
#        243654
#        259387
#        273559
#        285890
#        300467
#        313296
#        329346
#
# Disc length: 4575 seconds
#
# Revision: 4
# Processed by: cddbd v1.5.2PL0 Copyright (c) Steve Scherf et al.
# Submitted via: ExactAudioCopy v0.95b3
#
DISCID=7011dd19
DTITLE=The Carter Family - The Carter Family 1927-1934 [CDD
DYEAR=2002
DGENRE=Country
TTITLE0=I Never Loved But One
TTITLE1=Tell Me That You Love Me
TTITLE2=Where We'll Never Grow Old
TTITLE3=We Will March Through the Streets Of The City
TTITLE4=Sweet As The Flowers In Maytime
TTITLE5=Will The Roses Bloom In Heaven
TTITLE6=My Little Home In Tennessee
TTITLE7=The Sun Of The Soul
TTITLE8=If One Won't, Another One Will
TTITLE9=Broken Hearted Love
TTITLE10=Two Sweethearts
TTITLE11=The Winding Stream
TTITLE12=I Wouldn't Mind Dying
TTITLE13=The Spirit Of Love Watches Over Me
TTITLE14=The Church In The Wildwood
TTITLE15=Give Me Roses While I Live
TTITLE16=I Will Never Marry
TTITLE17=On The Sea Of Galilee
TTITLE18=Home By the Sea
TTITLE19=I Loved You Better Than You Knew
TTITLE20=This Is Like Heaven To Me
TTITLE21=See That My Grave Is Kept Green
TTITLE22=Over The Garden Wall
TTITLE23=Gold Watch And Chain
TTITLE24=Will My Mother Know Me There
EXTD=
EXTT0=
EXTT1=
EXTT2=
EXTT3=
EXTT4=
EXTT5=
EXTT6=
EXTT7=
EXTT8=
EXTT9=
EXTT10=
EXTT11=
EXTT12=
EXTT13=
EXTT14=
EXTT15=
EXTT16=
EXTT17=
EXTT18=
EXTT19=
EXTT20=
EXTT21=
EXTT22=
EXTT23=
EXTT24=
PLAYORDER=
